<svg width="640" height="480" viewBox="0 0 640 480" xmlns="http://www.w3.org/2000/svg">
  <defs>
    <linearGradient id="bg" x1="0%" y1="0%" x2="100%" y2="100%">
      <stop offset="0%" stop-color="#fffaf0"/>
      <stop offset="100%" stop-color="#ffe2b3"/>
    </linearGradient>
    <linearGradient id="shadow" x1="0%" y1="0%" x2="0%" y2="100%">
      <stop offset="0%" stop-color="rgba(0,0,0,0.1)"/>
      <stop offset="100%" stop-color="rgba(0,0,0,0.25)"/>
    </linearGradient>
  </defs>
  <rect width="640" height="480" fill="url(#bg)" rx="40"/>
  <rect x="160" y="120" width="320" height="240" rx="40" fill="#fff9f0" stroke="#facc15" stroke-width="4"/>
  <path d="M 220 220 c 30 -40 120 -40 170 0 l -10 10 c -45 -30 -120 -30 -165 0 z" fill="#fbbf24"/>
  <path d="M 200 240 q 40 -45 220 0 q -65 25 -220 0" fill="#fde68a"/>
  <path d="M 210 260 q 40 -35 220 0 q -70 30 -220 0" fill="#fcd34d"/>
  <path d="M 230 285 q 30 -30 190 0 q -60 35 -190 0" fill="#fdf4a7"/>
  <path d="M 240 305 q 25 -20 170 0 q -45 25 -170 0" fill="#fde68a" opacity="0.9"/>
  <ellipse cx="320" cy="370" rx="160" ry="30" fill="url(#shadow)"/>
  <text x="320" y="200" font-family="Inter" font-size="36" font-weight="700" fill="#92400e" text-anchor="middle">Tortilla</text>
  <text x="320" y="235" font-family="Inter" font-size="18" fill="#b45309" text-anchor="middle">Svelande värme</text>
  <text x="320" y="410" font-family="Inter" font-size="16" fill="#7c2d12" text-anchor="middle">Matlagningsgrillad</text>
</svg>
